<svg width="650" height="228" viewBox="0 0 650 228" fill="none" xmlns="http://www.w3.org/2000/svg">
<rect width="650" height="228" fill="#572C00"/>
<rect x="24" y="20" width="604" height="188" fill="#0FD877"/>
<path d="M119.59 101.361C116.219 101.361 113.312 100.57 110.869 98.9875C108.427 97.3706 106.552 95.1517 105.245 92.3307C103.972 89.5098 103.335 86.3104 103.335 82.7326C103.335 79.1548 103.972 75.9554 105.245 73.1344C106.552 70.3135 108.427 68.1118 110.869 66.5293C113.312 64.9124 116.219 64.1039 119.59 64.1039C123.65 64.1039 127.004 65.2564 129.653 67.5613C132.302 69.8319 134.074 72.9108 134.968 76.7983H130.582C129.859 74.1493 128.535 72.0508 126.608 70.5027C124.682 68.9202 122.36 68.129 119.642 68.129C115.892 68.129 113.02 69.4534 111.024 72.1024C109.029 74.7169 108.031 78.2431 108.031 82.681C108.031 87.1532 109.029 90.7138 111.024 93.3628C113.02 95.9773 115.892 97.2846 119.642 97.2846C122.222 97.2846 124.441 96.5966 126.299 95.2205C128.156 93.81 129.481 91.9351 130.272 89.5958H134.658C133.695 93.1736 131.906 96.0289 129.292 98.1618C126.712 100.295 123.478 101.361 119.59 101.361ZM148.071 101.206C146.041 101.206 144.527 100.88 143.53 100.226C142.532 99.5723 141.896 98.7295 141.62 97.6974C141.38 96.631 141.259 95.2549 141.259 93.5692L141.311 62.2978H145.749V92.8983C145.749 94.2056 145.8 95.1861 145.903 95.8397C146.041 96.4589 146.368 96.9578 146.884 97.3362C147.434 97.7146 148.294 97.9038 149.464 97.9038C150.186 97.9038 150.823 97.8522 151.373 97.749V100.948C150.444 101.12 149.344 101.206 148.071 101.206ZM167.29 101.361C164.882 101.361 162.818 100.742 161.098 99.5035C159.412 98.265 158.122 96.5794 157.228 94.4464C156.333 92.3135 155.886 89.9054 155.886 87.222C155.886 84.5387 156.333 82.1305 157.228 79.9976C158.157 77.8303 159.481 76.1446 161.201 74.9405C162.956 73.7021 165.037 73.0828 167.445 73.0828C169.853 73.0828 171.797 73.6505 173.276 74.7857C174.756 75.921 175.874 77.2799 176.63 78.8624H176.992V73.8053H181.481V101H176.992V95.4269H176.63C175.805 97.0438 174.635 98.4371 173.121 99.6067C171.608 100.776 169.664 101.361 167.29 101.361ZM168.684 97.5426C171.333 97.5426 173.362 96.5622 174.773 94.6012C176.183 92.6059 176.888 90.1462 176.888 87.222C176.888 84.2979 176.183 81.8553 174.773 79.8944C173.362 77.8991 171.333 76.9015 168.684 76.9015C165.966 76.9015 163.902 77.8819 162.491 79.8428C161.115 81.8037 160.427 84.2463 160.427 87.1704C160.427 90.129 161.115 92.6059 162.491 94.6012C163.902 96.5622 165.966 97.5426 168.684 97.5426ZM198.619 101.361C196.418 101.361 194.508 100.931 192.891 100.071C191.274 99.1767 190.036 98.0414 189.176 96.6654C188.35 95.2893 187.938 93.8444 187.938 92.3307V92.0727H192.375V92.2791C192.375 93.1392 192.616 93.9992 193.098 94.8593C193.579 95.6849 194.302 96.3729 195.265 96.9234C196.228 97.4394 197.398 97.6974 198.774 97.6974C200.425 97.6974 201.784 97.3018 202.851 96.5105C203.952 95.6849 204.502 94.5668 204.502 93.1564C204.502 91.9867 204.072 91.0578 203.212 90.3698C202.386 89.6818 201.337 89.2345 200.064 89.0281L196.504 88.5121C194.267 88.1681 192.393 87.4112 190.879 86.2416C189.365 85.0375 188.608 83.3002 188.608 81.0297C188.608 78.5183 189.503 76.5746 191.292 75.1986C193.115 73.7881 195.437 73.0828 198.258 73.0828C200.357 73.0828 202.146 73.4785 203.625 74.2697C205.138 75.0266 206.291 76.0414 207.082 77.3143C207.873 78.5527 208.269 79.9116 208.269 81.3909V81.5973H203.831V81.4941C203.831 80.8061 203.642 80.0836 203.264 79.3268C202.92 78.5699 202.318 77.9163 201.457 77.3659C200.597 76.8155 199.497 76.5402 198.155 76.5402C196.504 76.5402 195.179 76.9531 194.181 77.7787C193.184 78.5699 192.685 79.6192 192.685 80.9265C192.685 81.9929 193.081 82.8702 193.872 83.5582C194.663 84.2463 195.661 84.6935 196.865 84.8999L200.735 85.5191C203.006 85.8976 204.915 86.6888 206.463 87.8929C208.011 89.0625 208.785 90.7998 208.785 93.1048C208.785 94.7561 208.338 96.2009 207.443 97.4394C206.583 98.6779 205.379 99.6411 203.831 100.329C202.283 101.017 200.546 101.361 198.619 101.361ZM224.219 101.361C222.017 101.361 220.108 100.931 218.491 100.071C216.874 99.1767 215.636 98.0414 214.776 96.6654C213.95 95.2893 213.537 93.8444 213.537 92.3307V92.0727H217.975V92.2791C217.975 93.1392 218.216 93.9992 218.698 94.8593C219.179 95.6849 219.902 96.3729 220.865 96.9234C221.828 97.4394 222.998 97.6974 224.374 97.6974C226.025 97.6974 227.384 97.3018 228.451 96.5105C229.551 95.6849 230.102 94.5668 230.102 93.1564C230.102 91.9867 229.672 91.0578 228.812 90.3698C227.986 89.6818 226.937 89.2345 225.664 89.0281L222.103 88.5121C219.867 88.1681 217.992 87.4112 216.479 86.2416C214.965 85.0375 214.208 83.3002 214.208 81.0297C214.208 78.5183 215.103 76.5746 216.892 75.1986C218.715 73.7881 221.037 73.0828 223.858 73.0828C225.956 73.0828 227.745 73.4785 229.225 74.2697C230.738 75.0266 231.891 76.0414 232.682 77.3143C233.473 78.5527 233.869 79.9116 233.869 81.3909V81.5973H229.431V81.4941C229.431 80.8061 229.242 80.0836 228.863 79.3268C228.519 78.5699 227.917 77.9163 227.057 77.3659C226.197 76.8155 225.096 76.5402 223.755 76.5402C222.103 76.5402 220.779 76.9531 219.781 77.7787C218.784 78.5699 218.285 79.6192 218.285 80.9265C218.285 81.9929 218.68 82.8702 219.472 83.5582C220.263 84.2463 221.261 84.6935 222.465 84.8999L226.335 85.5191C228.605 85.8976 230.515 86.6888 232.063 87.8929C233.611 89.0625 234.385 90.7998 234.385 93.1048C234.385 94.7561 233.938 96.2009 233.043 97.4394C232.183 98.6779 230.979 99.6411 229.431 100.329C227.883 101.017 226.146 101.361 224.219 101.361ZM252.578 64.878H257.068V101H252.578V64.878ZM275.034 101.361C272.626 101.361 270.562 100.742 268.842 99.5035C267.156 98.265 265.866 96.5794 264.971 94.4464C264.077 92.3135 263.63 89.9054 263.63 87.222C263.63 84.5043 264.077 82.0789 264.971 79.946C265.866 77.8131 267.173 76.1446 268.893 74.9405C270.613 73.7021 272.695 73.0828 275.137 73.0828C277.545 73.0828 279.489 73.6677 280.968 74.8373C282.482 75.9726 283.6 77.3143 284.322 78.8624H284.735V62.2978H289.173V101H284.735V95.4269H284.322C283.497 97.0782 282.327 98.4887 280.813 99.6583C279.334 100.794 277.408 101.361 275.034 101.361ZM276.376 97.5426C279.059 97.5426 281.106 96.5622 282.516 94.6012C283.927 92.6059 284.632 90.1462 284.632 87.222C284.632 84.2979 283.927 81.8553 282.516 79.8944C281.106 77.9335 279.059 76.9531 276.376 76.9531C273.658 76.9531 271.611 77.9335 270.235 79.8944C268.859 81.8553 268.171 84.2979 268.171 87.222C268.171 90.1806 268.859 92.6403 270.235 94.6012C271.645 96.5622 273.692 97.5426 276.376 97.5426ZM308.377 101.361C305.59 101.361 303.234 100.69 301.307 99.3487C299.415 98.007 298.004 96.2525 297.076 94.0852C296.147 91.9179 295.682 89.6302 295.682 87.222C295.682 84.7795 296.147 82.4918 297.076 80.3588C298.004 78.1915 299.432 76.437 301.359 75.0954C303.285 73.7537 305.642 73.0828 308.428 73.0828C312.075 73.0828 314.982 74.3041 317.149 76.7466C319.351 79.1892 320.452 82.6982 320.452 87.2736V88.5121H300.12V88.8733C300.12 90.387 300.464 91.8147 301.152 93.1564C301.84 94.498 302.803 95.5817 304.042 96.4073C305.28 97.233 306.708 97.6458 308.325 97.6458C310.08 97.6458 311.593 97.1986 312.866 96.3041C314.139 95.4097 315.085 94.2056 315.704 92.6919H320.09C319.368 95.1689 318.009 97.233 316.014 98.8843C314.053 100.536 311.507 101.361 308.377 101.361ZM316.065 85.3643C315.928 82.2682 315.171 80.032 313.795 78.656C312.419 77.2799 310.613 76.5918 308.377 76.5918C305.934 76.5918 303.99 77.4003 302.545 79.0172C301.101 80.6341 300.327 82.7498 300.223 85.3643H316.065ZM327.006 73.8053H331.444V78.7076H331.856C332.544 77.1251 333.662 75.8006 335.211 74.7341C336.759 73.6333 338.651 73.0828 340.887 73.0828C343.192 73.0828 345.118 73.6333 346.666 74.7341C348.214 75.8006 349.35 77.2283 350.072 79.0172C350.829 80.7717 351.207 82.681 351.207 84.7451V101H346.77V85.3127C346.77 82.6294 346.064 80.5825 344.654 79.172C343.278 77.7615 341.472 77.0563 339.236 77.0563C336.862 77.0563 334.97 77.8303 333.559 79.3784C332.149 80.8921 331.444 82.8702 331.444 85.3127V101H327.006V73.8053ZM364.87 77.3659V93.1564C364.87 94.4292 364.922 95.3753 365.025 95.9945C365.163 96.5794 365.49 97.0438 366.006 97.3878C366.556 97.7318 367.433 97.9038 368.637 97.9038C369.463 97.9038 370.358 97.7834 371.321 97.5426V100.742C371.08 100.845 370.547 100.948 369.721 101.052C368.93 101.155 368.104 101.206 367.244 101.206C365.249 101.206 363.752 100.931 362.755 100.381C361.791 99.7959 361.155 99.0219 360.845 98.0586C360.57 97.061 360.433 95.7537 360.433 94.1368V77.3659H355.376V73.8053H360.433V64.878H364.87V73.8053H371.321V77.3659H364.87ZM378.214 73.8053H382.652V101H378.214V73.8053ZM380.381 68.7482C379.556 68.7482 378.867 68.473 378.317 67.9226C377.767 67.3377 377.491 66.6497 377.491 65.8584C377.491 65.0672 377.767 64.3964 378.317 63.8459C378.867 63.2611 379.556 62.9687 380.381 62.9687C381.207 62.9687 381.895 63.2611 382.445 63.8459C383.03 64.3964 383.323 65.0672 383.323 65.8584C383.323 66.6497 383.03 67.3377 382.445 67.9226C381.895 68.473 381.207 68.7482 380.381 68.7482ZM414.852 101H410.414V77.3659H397.513V101H393.075L393.024 77.3659H389.308V73.8053H393.024V69.9351C393.024 68.0774 393.523 66.4433 394.52 65.0328C395.518 63.6223 397.445 62.9171 400.3 62.9171C400.988 62.9171 401.676 62.9687 402.364 63.0719C403.086 63.1407 403.62 63.2267 403.964 63.3299V66.4261C403.207 66.2541 402.347 66.1681 401.384 66.1681C400.179 66.1681 399.285 66.4089 398.7 66.8905C398.15 67.3377 397.806 67.8882 397.668 68.5418C397.565 69.161 397.513 69.9695 397.513 70.9671V73.8053H414.852V101ZM412.736 68.7482C411.911 68.7482 411.222 68.473 410.672 67.9226C410.122 67.3377 409.846 66.6497 409.846 65.8584C409.846 65.0672 410.122 64.3964 410.672 63.8459C411.222 63.2611 411.911 62.9687 412.736 62.9687C413.562 62.9687 414.25 63.2611 414.8 63.8459C415.351 64.3964 415.626 65.0672 415.626 65.8584C415.626 66.6497 415.351 67.3377 414.8 67.9226C414.25 68.473 413.562 68.7482 412.736 68.7482ZM434.461 101.361C431.674 101.361 429.318 100.69 427.391 99.3487C425.499 98.007 424.089 96.2525 423.16 94.0852C422.231 91.9179 421.767 89.6302 421.767 87.222C421.767 84.7795 422.231 82.4918 423.16 80.3588C424.089 78.1915 425.516 76.437 427.443 75.0954C429.369 73.7537 431.726 73.0828 434.513 73.0828C438.159 73.0828 441.066 74.3041 443.233 76.7466C445.435 79.1892 446.536 82.6982 446.536 87.2736V88.5121H426.205V88.8733C426.205 90.387 426.549 91.8147 427.237 93.1564C427.925 94.498 428.888 95.5817 430.126 96.4073C431.365 97.233 432.792 97.6458 434.409 97.6458C436.164 97.6458 437.678 97.1986 438.95 96.3041C440.223 95.4097 441.169 94.2056 441.789 92.6919H446.175C445.452 95.1689 444.094 97.233 442.098 98.8843C440.137 100.536 437.592 101.361 434.461 101.361ZM442.15 85.3643C442.012 82.2682 441.255 80.032 439.879 78.656C438.503 77.2799 436.697 76.5918 434.461 76.5918C432.018 76.5918 430.075 77.4003 428.63 79.0172C427.185 80.6341 426.411 82.7498 426.308 85.3643H442.15ZM452.884 73.8053H457.321V78.1399H457.631C458.078 76.9359 458.87 75.921 460.005 75.0954C461.174 74.2353 462.637 73.8053 464.391 73.8053C464.941 73.8053 465.372 73.8397 465.681 73.9085C466.025 73.9429 466.404 74.0289 466.816 74.1665L466.662 78.5011C466.111 78.3291 465.63 78.2087 465.217 78.1399C464.838 78.0711 464.339 78.0367 463.72 78.0367C459.454 78.0367 457.321 80.5653 457.321 85.6223V101H452.884V73.8053ZM497.314 101.361C494.94 101.361 492.997 100.776 491.483 99.6067C489.969 98.4371 488.8 97.0438 487.974 95.4269H487.613V101H483.123V62.2978H487.613V78.8624H487.974C488.731 77.2799 489.849 75.921 491.328 74.7857C492.807 73.6505 494.751 73.0828 497.159 73.0828C499.602 73.0828 501.683 73.7021 503.403 74.9405C505.158 76.1446 506.482 77.8303 507.377 79.9976C508.271 82.1305 508.718 84.5387 508.718 87.222C508.718 89.9054 508.271 92.3135 507.377 94.4464C506.482 96.5794 505.175 98.265 503.455 99.5035C501.735 100.742 499.688 101.361 497.314 101.361ZM495.921 97.5426C498.604 97.5426 500.634 96.5622 502.01 94.6012C503.42 92.6403 504.126 90.1806 504.126 87.222C504.126 84.2979 503.438 81.8553 502.062 79.8944C500.685 77.9335 498.639 76.9531 495.921 76.9531C493.237 76.9531 491.191 77.9335 489.78 79.8944C488.404 81.8553 487.716 84.2979 487.716 87.222C487.716 90.1462 488.421 92.6059 489.832 94.6012C491.242 96.5622 493.272 97.5426 495.921 97.5426ZM523.826 104.767C523.276 106.074 522.743 107.141 522.227 107.966C521.745 108.826 520.937 109.635 519.801 110.392C518.666 111.149 517.187 111.527 515.363 111.527C514.4 111.527 513.368 111.389 512.267 111.114V107.812C513.093 107.949 513.815 108.018 514.435 108.018C515.57 108.018 516.481 107.794 517.169 107.347C517.858 106.934 518.391 106.384 518.769 105.696C519.182 105.008 519.664 104.01 520.214 102.703L521.453 99.6583L511.39 73.8053H516.034L523.62 94.7561H523.929L531.876 73.8053H536.521L523.826 104.767ZM57.7419 176.361C54.1985 176.361 51.2571 175.467 48.9178 173.678C46.5784 171.855 44.8411 169.532 43.7059 166.711C42.605 163.891 42.0546 160.915 42.0546 157.784C42.0546 154.619 42.6222 151.626 43.7575 148.805C44.8928 145.95 46.6645 143.628 49.0726 141.839C51.4807 140.016 54.4909 139.104 58.1031 139.104C62.1281 139.104 65.3791 140.205 67.856 142.407C70.3674 144.574 72.1047 147.309 73.0679 150.611H68.3721C67.684 148.272 66.48 146.449 64.7599 145.141C63.0398 143.834 60.8208 143.181 58.1031 143.181C54.4909 143.181 51.6699 144.488 49.6402 147.102C47.6105 149.717 46.5956 153.295 46.5956 157.836C46.5956 162.446 47.6277 166.058 49.6918 168.672C51.7903 171.287 54.6629 172.594 58.3095 172.594C60.4768 172.594 62.3345 172.147 63.8826 171.253C65.4651 170.324 66.6692 169.068 67.4948 167.486C68.3549 165.903 68.8021 164.114 68.8365 162.119L68.8881 160.674H58.7739V157.32H73.0679V176H69.5073V170.014H69.0945C68.8881 170.53 68.4237 171.27 67.7012 172.233C66.9788 173.162 65.7747 174.091 64.089 175.02C62.4377 175.914 60.322 176.361 57.7419 176.361ZM91.5841 176.361C88.7975 176.361 86.441 175.69 84.5145 174.349C82.6224 173.007 81.2119 171.253 80.2831 169.085C79.3542 166.918 78.8898 164.63 78.8898 162.222C78.8898 159.779 79.3542 157.492 80.2831 155.359C81.2119 153.192 82.6396 151.437 84.5661 150.095C86.4926 148.754 88.8491 148.083 91.6357 148.083C95.2823 148.083 98.1892 149.304 100.357 151.747C102.558 154.189 103.659 157.698 103.659 162.274V163.512H83.3276V163.873C83.3276 165.387 83.6716 166.815 84.3597 168.156C85.0477 169.498 86.011 170.582 87.2494 171.407C88.4879 172.233 89.9156 172.646 91.5325 172.646C93.287 172.646 94.8007 172.199 96.0735 171.304C97.3464 170.41 98.2925 169.206 98.9117 167.692H103.298C102.575 170.169 101.217 172.233 99.2213 173.884C97.2604 175.536 94.7147 176.361 91.5841 176.361ZM99.2729 160.364C99.1353 157.268 98.3785 155.032 97.0024 153.656C95.6263 152.28 93.8202 151.592 91.5841 151.592C89.1415 151.592 87.1978 152.4 85.753 154.017C84.3081 155.634 83.534 157.75 83.4308 160.364H99.2729ZM110.213 148.805H114.651V153.708H115.064C115.752 152.125 116.87 150.801 118.418 149.734C119.966 148.633 121.858 148.083 124.094 148.083C126.399 148.083 128.326 148.633 129.874 149.734C131.422 150.801 132.557 152.228 133.28 154.017C134.036 155.772 134.415 157.681 134.415 159.745V176H129.977V160.313C129.977 157.629 129.272 155.582 127.861 154.172C126.485 152.762 124.679 152.056 122.443 152.056C120.069 152.056 118.177 152.83 116.767 154.378C115.356 155.892 114.651 157.87 114.651 160.313V176H110.213V148.805ZM153.417 176.361C150.63 176.361 148.274 175.69 146.347 174.349C144.455 173.007 143.045 171.253 142.116 169.085C141.187 166.918 140.723 164.63 140.723 162.222C140.723 159.779 141.187 157.492 142.116 155.359C143.045 153.192 144.472 151.437 146.399 150.095C148.325 148.754 150.682 148.083 153.468 148.083C157.115 148.083 160.022 149.304 162.189 151.747C164.391 154.189 165.492 157.698 165.492 162.274V163.512H145.16V163.873C145.16 165.387 145.504 166.815 146.192 168.156C146.88 169.498 147.844 170.582 149.082 171.407C150.321 172.233 151.748 172.646 153.365 172.646C155.12 172.646 156.633 172.199 157.906 171.304C159.179 170.41 160.125 169.206 160.744 167.692H165.131C164.408 170.169 163.049 172.233 161.054 173.884C159.093 175.536 156.547 176.361 153.417 176.361ZM161.106 160.364C160.968 157.268 160.211 155.032 158.835 153.656C157.459 152.28 155.653 151.592 153.417 151.592C150.974 151.592 149.031 152.4 147.586 154.017C146.141 155.634 145.367 157.75 145.264 160.364H161.106ZM205.251 171.975V176H183.939V139.878H188.428L188.377 171.975H205.251ZM222.759 176.361C220.007 176.361 217.668 175.708 215.741 174.4C213.849 173.059 212.422 171.321 211.458 169.188C210.495 167.021 210.013 164.699 210.013 162.222C210.013 159.745 210.495 157.44 211.458 155.307C212.422 153.14 213.849 151.403 215.741 150.095C217.668 148.754 220.007 148.083 222.759 148.083C225.512 148.083 227.834 148.754 229.726 150.095C231.652 151.403 233.08 153.14 234.009 155.307C234.972 157.475 235.454 159.779 235.454 162.222C235.454 164.665 234.972 166.969 234.009 169.137C233.046 171.304 231.601 173.059 229.674 174.4C227.782 175.708 225.477 176.361 222.759 176.361ZM222.759 172.543C224.445 172.543 225.907 172.078 227.146 171.149C228.419 170.22 229.382 168.982 230.035 167.434C230.689 165.851 231.016 164.097 231.016 162.17C231.016 159.212 230.276 156.752 228.797 154.791C227.318 152.83 225.305 151.85 222.759 151.85C221.039 151.85 219.543 152.314 218.27 153.243C217.031 154.172 216.085 155.428 215.432 157.01C214.778 158.558 214.451 160.278 214.451 162.17C214.451 165.129 215.191 167.606 216.67 169.601C218.15 171.562 220.179 172.543 222.759 172.543ZM241.735 148.805H246.173V153.14H246.483C246.93 151.936 247.721 150.921 248.856 150.095C250.026 149.235 251.488 148.805 253.243 148.805C253.793 148.805 254.223 148.84 254.533 148.908C254.877 148.943 255.255 149.029 255.668 149.167L255.513 153.501C254.963 153.329 254.481 153.209 254.068 153.14C253.69 153.071 253.191 153.037 252.572 153.037C248.306 153.037 246.173 155.565 246.173 160.622V176H241.735V148.805ZM271.237 176.361C268.45 176.361 266.094 175.69 264.167 174.349C262.275 173.007 260.864 171.253 259.936 169.085C259.007 166.918 258.542 164.63 258.542 162.222C258.542 159.779 259.007 157.492 259.936 155.359C260.864 153.192 262.292 151.437 264.219 150.095C266.145 148.754 268.502 148.083 271.288 148.083C274.935 148.083 277.842 149.304 280.009 151.747C282.211 154.189 283.312 157.698 283.312 162.274V163.512H262.98V163.873C262.98 165.387 263.324 166.815 264.012 168.156C264.7 169.498 265.664 170.582 266.902 171.407C268.14 172.233 269.568 172.646 271.185 172.646C272.94 172.646 274.453 172.199 275.726 171.304C276.999 170.41 277.945 169.206 278.564 167.692H282.951C282.228 170.169 280.869 172.233 278.874 173.884C276.913 175.536 274.367 176.361 271.237 176.361ZM278.925 160.364C278.788 157.268 278.031 155.032 276.655 153.656C275.279 152.28 273.473 151.592 271.237 151.592C268.794 151.592 266.85 152.4 265.406 154.017C263.961 155.634 263.187 157.75 263.083 160.364H278.925ZM289.866 148.805H294.304V153.708H294.716C295.404 152.125 296.522 150.801 298.071 149.734C299.619 148.633 301.511 148.083 303.747 148.083C306.052 148.083 307.978 148.633 309.526 149.734C311.074 150.801 312.21 152.228 312.932 154.017C313.689 155.772 314.067 157.681 314.067 159.745V176H309.63V160.313C309.63 157.629 308.924 155.582 307.514 154.172C306.138 152.762 304.332 152.056 302.096 152.056C299.722 152.056 297.83 152.83 296.419 154.378C295.009 155.892 294.304 157.87 294.304 160.313V176H289.866V148.805ZM320.276 172.388L336.066 152.572V152.469H321.153V148.754H341.071V152.366L325.229 172.181V172.285H341.071V176H320.276V172.388ZM371.027 176.413C368.24 176.413 365.849 175.845 363.854 174.71C361.893 173.54 360.414 172.044 359.416 170.22C358.418 168.397 357.919 166.488 357.919 164.493V164.235H362.822V164.493C362.822 165.697 363.097 166.901 363.647 168.105C364.232 169.309 365.144 170.324 366.382 171.149C367.621 171.941 369.203 172.336 371.13 172.336C373.4 172.336 375.275 171.751 376.754 170.582C378.234 169.412 378.973 167.83 378.973 165.834C378.973 164.183 378.423 162.876 377.322 161.912C376.256 160.915 374.88 160.244 373.194 159.9L367.93 158.919C361.876 157.578 358.848 154.396 358.848 149.373C358.848 147.309 359.347 145.503 360.345 143.955C361.342 142.407 362.718 141.22 364.473 140.394C366.262 139.534 368.326 139.104 370.665 139.104C373.314 139.104 375.585 139.637 377.477 140.704C379.369 141.77 380.797 143.163 381.76 144.883C382.723 146.569 383.205 148.324 383.205 150.147V150.353H378.303V150.199C378.303 149.167 378.045 148.117 377.528 147.051C377.047 145.95 376.221 145.004 375.052 144.213C373.916 143.421 372.403 143.026 370.511 143.026C368.343 143.026 366.606 143.628 365.299 144.832C364.026 146.036 363.389 147.532 363.389 149.321C363.389 150.835 363.888 152.073 364.886 153.037C365.883 154 367.242 154.654 368.962 154.998L373.71 155.926C380.349 157.268 383.669 160.519 383.669 165.679C383.669 167.778 383.136 169.636 382.07 171.253C381.037 172.869 379.558 174.142 377.632 175.071C375.705 175.966 373.503 176.413 371.027 176.413ZM399.957 176.361C397.549 176.361 395.485 175.742 393.764 174.504C392.079 173.265 390.789 171.579 389.894 169.446C389 167.314 388.553 164.905 388.553 162.222C388.553 159.539 389 157.131 389.894 154.998C390.823 152.83 392.148 151.145 393.868 149.941C395.622 148.702 397.703 148.083 400.112 148.083C402.52 148.083 404.463 148.65 405.943 149.786C407.422 150.921 408.54 152.28 409.297 153.862H409.658V148.805H414.148V176H409.658V170.427H409.297C408.471 172.044 407.302 173.437 405.788 174.607C404.274 175.776 402.331 176.361 399.957 176.361ZM401.35 172.543C403.999 172.543 406.029 171.562 407.439 169.601C408.85 167.606 409.555 165.146 409.555 162.222C409.555 159.298 408.85 156.855 407.439 154.894C406.029 152.899 403.999 151.901 401.35 151.901C398.632 151.901 396.568 152.882 395.158 154.843C393.782 156.804 393.094 159.246 393.094 162.17C393.094 165.129 393.782 167.606 395.158 169.601C396.568 171.562 398.632 172.543 401.35 172.543ZM421.791 148.805H426.229V153.14H426.538C426.986 151.936 427.777 150.921 428.912 150.095C430.082 149.235 431.544 148.805 433.298 148.805C433.849 148.805 434.279 148.84 434.588 148.908C434.932 148.943 435.311 149.029 435.724 149.167L435.569 153.501C435.018 153.329 434.537 153.209 434.124 153.14C433.746 153.071 433.247 153.037 432.627 153.037C428.362 153.037 426.229 155.565 426.229 160.622V176H421.791V148.805ZM440.592 148.805H444.979V153.811H445.392C445.46 153.467 445.804 152.848 446.424 151.953C447.043 151.024 447.989 150.147 449.262 149.321C450.535 148.496 452.117 148.083 454.009 148.083C456.005 148.083 457.656 148.547 458.963 149.476C460.305 150.405 461.302 151.403 461.956 152.469C462.61 153.536 462.937 154.206 462.937 154.482H463.349C463.831 153.278 464.777 151.919 466.188 150.405C467.632 148.857 469.834 148.083 472.793 148.083C474.994 148.083 476.835 148.65 478.314 149.786C479.793 150.887 480.877 152.314 481.565 154.069C482.288 155.823 482.649 157.698 482.649 159.693V176H478.263V160.106C478.263 157.492 477.575 155.514 476.198 154.172C474.857 152.83 473.188 152.159 471.193 152.159C469.129 152.159 467.374 152.865 465.929 154.275C464.519 155.651 463.814 157.595 463.814 160.106V176H459.428V160.106C459.428 157.492 458.739 155.514 457.363 154.172C456.022 152.83 454.353 152.159 452.358 152.159C450.294 152.159 448.539 152.865 447.094 154.275C445.684 155.651 444.979 157.595 444.979 160.106V176H440.592V148.805ZM490.39 148.805H494.827V176H490.39V148.805ZM492.557 143.748C491.731 143.748 491.043 143.473 490.493 142.923C489.942 142.338 489.667 141.65 489.667 140.858C489.667 140.067 489.942 139.396 490.493 138.846C491.043 138.261 491.731 137.969 492.557 137.969C493.383 137.969 494.071 138.261 494.621 138.846C495.206 139.396 495.498 140.067 495.498 140.858C495.498 141.65 495.206 142.338 494.621 142.923C494.071 143.473 493.383 143.748 492.557 143.748ZM514.385 176.361C511.598 176.361 509.242 175.69 507.315 174.349C505.423 173.007 504.013 171.253 503.084 169.085C502.155 166.918 501.691 164.63 501.691 162.222C501.691 159.779 502.155 157.492 503.084 155.359C504.013 153.192 505.44 151.437 507.367 150.095C509.294 148.754 511.65 148.083 514.437 148.083C518.083 148.083 520.99 149.304 523.157 151.747C525.359 154.189 526.46 157.698 526.46 162.274V163.512H506.129V163.873C506.129 165.387 506.473 166.815 507.161 168.156C507.849 169.498 508.812 170.582 510.05 171.407C511.289 172.233 512.716 172.646 514.333 172.646C516.088 172.646 517.602 172.199 518.874 171.304C520.147 170.41 521.093 169.206 521.713 167.692H526.099C525.376 170.169 524.018 172.233 522.022 173.884C520.061 175.536 517.516 176.361 514.385 176.361ZM522.074 160.364C521.936 157.268 521.179 155.032 519.803 153.656C518.427 152.28 516.621 151.592 514.385 151.592C511.942 151.592 509.999 152.4 508.554 154.017C507.109 155.634 506.335 157.75 506.232 160.364H522.074ZM533.014 148.805H537.452V153.708H537.865C538.553 152.125 539.671 150.801 541.219 149.734C542.767 148.633 544.659 148.083 546.895 148.083C549.2 148.083 551.127 148.633 552.675 149.734C554.223 150.801 555.358 152.228 556.081 154.017C556.837 155.772 557.216 157.681 557.216 159.745V176H552.778V160.313C552.778 157.629 552.073 155.582 550.662 154.172C549.286 152.762 547.48 152.056 545.244 152.056C542.87 152.056 540.978 152.83 539.568 154.378C538.157 155.892 537.452 157.87 537.452 160.313V176H533.014V148.805ZM570.879 152.366V168.156C570.879 169.429 570.93 170.375 571.034 170.995C571.171 171.579 571.498 172.044 572.014 172.388C572.565 172.732 573.442 172.904 574.646 172.904C575.471 172.904 576.366 172.783 577.329 172.543V175.742C577.088 175.845 576.555 175.948 575.729 176.052C574.938 176.155 574.113 176.206 573.253 176.206C571.257 176.206 569.761 175.931 568.763 175.381C567.8 174.796 567.163 174.022 566.854 173.059C566.579 172.061 566.441 170.754 566.441 169.137V152.366H561.384V148.805H566.441V139.878H570.879V148.805H577.329V152.366H570.879ZM595.368 176.361C592.616 176.361 590.277 175.708 588.35 174.4C586.458 173.059 585.031 171.321 584.067 169.188C583.104 167.021 582.623 164.699 582.623 162.222C582.623 159.745 583.104 157.44 584.067 155.307C585.031 153.14 586.458 151.403 588.35 150.095C590.277 148.754 592.616 148.083 595.368 148.083C598.121 148.083 600.443 148.754 602.335 150.095C604.261 151.403 605.689 153.14 606.618 155.307C607.581 157.475 608.063 159.779 608.063 162.222C608.063 164.665 607.581 166.969 606.618 169.137C605.655 171.304 604.21 173.059 602.283 174.4C600.391 175.708 598.086 176.361 595.368 176.361ZM595.368 172.543C597.054 172.543 598.516 172.078 599.755 171.149C601.028 170.22 601.991 168.982 602.644 167.434C603.298 165.851 603.625 164.097 603.625 162.17C603.625 159.212 602.885 156.752 601.406 154.791C599.927 152.83 597.914 151.85 595.368 151.85C593.648 151.85 592.152 152.314 590.879 153.243C589.641 154.172 588.694 155.428 588.041 157.01C587.387 158.558 587.06 160.278 587.06 162.17C587.06 165.129 587.8 167.606 589.279 169.601C590.759 171.562 592.788 172.543 595.368 172.543Z" fill="black"/>
</svg>
